<?xml version="1.0" encoding="utf-8"?>
<!-- Generator: Adobe Illustrator 16.0.0, SVG Export Plug-In . SVG Version: 6.00 Build 0)  -->
<!DOCTYPE svg PUBLIC "-//W3C//DTD SVG 1.1//EN" "http://www.w3.org/Graphics/SVG/1.1/DTD/svg11.dtd">
<svg version="1.1" id="Layer_1" xmlns="http://www.w3.org/2000/svg" xmlns:xlink="http://www.w3.org/1999/xlink" x="0px" y="0px"
	 width="106px" height="135.334px" viewBox="0 0 106 135.334" enable-background="new 0 0 106 135.334" xml:space="preserve">
<path opacity="0.5" fill="#4294AA" d="M53,19.538c-17.175,0-31.149,13.974-31.149,31.15v33.551
	c0,17.174,13.974,31.148,31.149,31.148c17.176,0,31.15-13.974,31.15-31.148V50.688C84.149,33.511,70.175,19.538,53,19.538z"/>
<path fill="#4294AA" d="M61.68,11.233V6.716c0-2.554-2.072-4.627-4.627-4.627h-8.105c-2.555,0-4.627,2.073-4.627,4.627v4.517
	c-18.119,3.984-31.722,20.155-31.722,39.454v33.551c0,19.501,13.888,35.82,32.295,39.583L53,131.931l8.106-8.108
	c18.406-3.763,32.295-20.082,32.295-39.583V50.688C93.401,31.388,79.797,15.217,61.68,11.233z M84.15,84.239
	c0,17.174-13.974,31.148-31.15,31.148c-17.175,0-31.149-13.974-31.149-31.148V50.688c0-17.176,13.974-31.15,31.149-31.15
	c17.176,0,31.15,13.974,31.15,31.15V84.239z"/>
</svg>
