<?xml version="1.0" encoding="utf-8"?>
<!-- Generator: Adobe Illustrator 16.0.0, SVG Export Plug-In . SVG Version: 6.00 Build 0)  -->
<!DOCTYPE svg PUBLIC "-//W3C//DTD SVG 1.1//EN" "http://www.w3.org/Graphics/SVG/1.1/DTD/svg11.dtd">
<svg version="1.1" id="Layer_1" xmlns="http://www.w3.org/2000/svg" xmlns:xlink="http://www.w3.org/1999/xlink" x="0px" y="0px"
	 width="106px" height="135.334px" viewBox="0 0 106 135.334" enable-background="new 0 0 106 135.334" xml:space="preserve">
<path opacity="0.5" fill="#F25100" d="M53.018,19.538c-17.529,0-24.601,6.546-32.09,13.478c-2.085,1.932-4.21,3.898-6.561,5.697
	c6.143,5.66,13.469,17.823,9.771,42.704c-1.941,13.075-2.333,22.824,2.066,27.927c3.895,4.517,12.416,6.619,26.812,6.619
	c14.398,0,22.919-2.103,26.814-6.619c4.398-5.103,4.007-14.852,2.064-27.927c-3.737-25.16,3.795-37.311,9.977-42.89
	c-2.04-1.668-3.898-3.453-5.724-5.207C78.769,26.232,71.795,19.538,53.018,19.538z"/>
<path fill="#F25100" d="M102.381,34.526c-3.641-1.942-6.646-4.827-9.823-7.879c-6.418-6.163-14.166-13.599-30.006-15.75v-4.18
	c0-2.554-2.072-4.627-4.625-4.627h-8.106c-2.557,0-4.626,2.073-4.626,4.627v4.014c-15.825,1.873-23.896,9.336-30.552,15.496
	c-3.491,3.232-6.791,6.286-10.808,8.209C2.125,35.252,1.05,37.02,1.18,38.908c0.128,1.892,1.358,3.499,3.163,4.079
	c0.625,0.226,15.278,5.884,10.645,37.072c-2.382,16.033-2.508,27.535,4.211,35.325c5.046,5.854,13.491,8.904,26.92,9.644
	l6.898,6.902l6.899-6.902c13.428-0.739,21.873-3.79,26.921-9.644c6.718-7.79,6.592-19.292,4.211-35.325
	c-4.633-31.188,10.018-36.847,10.569-37.047c1.77-0.568,3.025-2.139,3.193-3.99C104.979,37.171,104.021,35.4,102.381,34.526z
	 M81.896,81.416c1.943,13.075,2.334,22.824-2.064,27.927c-3.895,4.517-12.416,6.619-26.814,6.619
	c-14.397,0-22.918-2.103-26.812-6.619c-4.399-5.103-4.007-14.852-2.066-27.927c3.698-24.881-3.629-37.044-9.771-42.704
	c2.35-1.799,4.476-3.765,6.561-5.697c7.489-6.931,14.561-13.478,32.09-13.478c18.778,0,25.751,6.694,33.131,13.782
	c1.826,1.753,3.684,3.538,5.724,5.207C85.691,44.105,78.159,56.256,81.896,81.416z"/>
</svg>
