<?xml version="1.0" encoding="utf-8"?>
<!-- Generator: Adobe Illustrator 16.0.0, SVG Export Plug-In . SVG Version: 6.00 Build 0)  -->
<!DOCTYPE svg PUBLIC "-//W3C//DTD SVG 1.1//EN" "http://www.w3.org/Graphics/SVG/1.1/DTD/svg11.dtd">
<svg version="1.1" id="Layer_1" xmlns="http://www.w3.org/2000/svg" xmlns:xlink="http://www.w3.org/1999/xlink" x="0px" y="0px"
	 width="106px" height="135.334px" viewBox="0 0 106 135.334" enable-background="new 0 0 106 135.334" xml:space="preserve">
<path opacity="0.5" fill="#B51F1C" d="M89.668,43.76c-0.07-0.401-0.284-1.617-2.499-2.985L52.951,20.513L18.66,40.82
	c-2.04,1.255-2.255,2.454-2.322,2.849c-0.376,2.075,1.198,4.711,1.708,5.402c0.896,1.064,4.18,5.446,4.18,12.652v53.803h61.451
	V61.723c0-7.316,3.381-11.721,4.218-12.698C88.48,48.268,90.016,45.753,89.668,43.76z"/>
<path fill="#B51F1C" d="M98.799,42.255c-0.443-2.632-1.973-6.391-6.839-9.397L61.304,14.706c0.241-0.559,0.376-1.174,0.376-1.822
	V6.716c0-2.554-2.07-4.627-4.628-4.627h-8.104c-2.555,0-4.627,2.073-4.627,4.627v6.167c0,0.63,0.128,1.229,0.356,1.777
	L13.879,32.899c-4.653,2.867-6.185,6.549-6.649,9.132c-1.167,6.5,3.089,12.176,3.578,12.802c0.113,0.144,0.047,0.081,0.175,0.211
	c0.082,0.094,1.993,2.411,1.993,6.678v58.428c0,2.558,2.071,4.628,4.628,4.628h28.214l7.149,7.152l7.153-7.152h28.183
	c2.556,0,4.629-2.07,4.629-4.628V61.723c0-4.268,1.91-6.584,1.932-6.613c0.104-0.104,0.078-0.081,0.17-0.198
	C95.533,54.302,99.885,48.752,98.799,42.255z M83.679,115.525H22.228V61.723c0-7.206-3.283-11.588-4.179-12.652
	c-0.511-0.691-2.085-3.327-1.709-5.402c0.067-0.395,0.282-1.593,2.322-2.849l34.291-20.307l34.218,20.262
	c2.215,1.368,2.429,2.584,2.499,2.985c0.348,1.993-1.188,4.508-1.773,5.265c-0.836,0.978-4.218,5.382-4.218,12.698V115.525z"/>
</svg>
