<?xml version="1.0" encoding="utf-8"?>
<!-- Generator: Adobe Illustrator 16.0.0, SVG Export Plug-In . SVG Version: 6.00 Build 0)  -->
<!DOCTYPE svg PUBLIC "-//W3C//DTD SVG 1.1//EN" "http://www.w3.org/Graphics/SVG/1.1/DTD/svg11.dtd">
<svg version="1.1" id="Layer_1" xmlns="http://www.w3.org/2000/svg" xmlns:xlink="http://www.w3.org/1999/xlink" x="0px" y="0px"
	 width="30px" height="40.001px" viewBox="0 0 30 40.001" enable-background="new 0 0 30 40.001" xml:space="preserve">
<path opacity="0.5" fill="#ED5715" d="M26.965,10.954c-0.022-0.131-0.092-0.532-0.814-0.984L14.984,3.296L3.796,9.985
	c-0.666,0.413-0.735,0.809-0.76,0.938c-0.12,0.684,0.392,1.553,0.559,1.78c0.295,0.35,1.364,1.794,1.364,4.166v17.727h20.052V16.869
	c0-2.407,1.103-3.858,1.378-4.183C26.579,12.438,27.079,11.611,26.965,10.954z"/>
<path fill="#ED5715" d="M29.943,10.457c-0.144-0.866-0.643-2.104-2.229-3.094l-11.959-7.15c-0.476-0.283-1.064-0.283-1.538,0
	L2.235,7.376c-1.519,0.943-2.018,2.158-2.17,3.008c-0.38,2.14,1.007,4.012,1.167,4.219c0.036,0.046,0.015,0.024,0.057,0.068
	c0.029,0.03,0.651,0.795,0.651,2.198v19.249c0,0.844,0.677,1.524,1.509,1.524h9.207l2.333,2.358l2.334-2.358h9.195
	c0.834,0,1.511-0.681,1.511-1.524V16.869c0-1.403,0.626-2.168,0.63-2.177c0.034-0.036,0.025-0.027,0.057-0.065
	C28.879,14.425,30.299,12.6,29.943,10.457z M25.011,16.869v17.727H4.959V16.869c0-2.372-1.069-3.816-1.364-4.166
	c-0.167-0.228-0.679-1.097-0.559-1.78c0.024-0.129,0.094-0.524,0.76-0.938l11.188-6.689L26.15,9.97
	c0.723,0.452,0.792,0.854,0.814,0.984c0.114,0.657-0.386,1.483-0.576,1.732C26.113,13.011,25.011,14.462,25.011,16.869z"/>
</svg>
