<?xml version="1.0" encoding="utf-8"?>
<!-- Generator: Adobe Illustrator 16.0.0, SVG Export Plug-In . SVG Version: 6.00 Build 0)  -->
<!DOCTYPE svg PUBLIC "-//W3C//DTD SVG 1.1//EN" "http://www.w3.org/Graphics/SVG/1.1/DTD/svg11.dtd">
<svg version="1.1" id="Layer_1" xmlns="http://www.w3.org/2000/svg" xmlns:xlink="http://www.w3.org/1999/xlink" x="0px" y="0px"
	 width="106px" height="135.334px" viewBox="0 0 106 135.334" enable-background="new 0 0 106 135.334" xml:space="preserve">
<path opacity="0.25" fill="#9E9E9E" d="M88.276,86.604c0,19.32-15.661,34.981-34.982,34.981c-19.317,0-34.981-15.661-34.981-34.981
	V47.706c0-19.32,15.664-34.981,34.981-34.981c19.321,0,34.982,15.662,34.982,34.981V86.604z"/>
<g>
	<path fill="#9E9E9E" d="M22.298,86.597c-0.05-0.792-0.075-1.597-0.075-2.397v-7.256c0-2.556-2.071-4.627-4.63-4.627
		c-2.553,0-4.624,2.071-4.624,4.627V84.2c0,0.999,0.032,2.008,0.098,2.999c0.158,2.448,2.194,4.324,4.611,4.324
		c0.103,0,0.204-0.003,0.305-0.008C20.533,91.347,22.463,89.145,22.298,86.597z"/>
	<path fill="#9E9E9E" d="M88.374,72.317c-2.553,0-4.624,2.071-4.624,4.627v7.325c0,0.776-0.029,1.563-0.076,2.335
		c-0.161,2.549,1.775,4.748,4.325,4.911c0.098,0.005,0.197,0.008,0.3,0.008c2.418,0,4.455-1.882,4.609-4.332
		c0.062-0.968,0.093-1.951,0.093-2.922v-7.325C93.001,74.388,90.931,72.317,88.374,72.317z"/>
	<path fill="#9E9E9E" d="M92.936,48.021c-0.161-2.445-2.196-4.323-4.616-4.323c-0.1,0-0.201,0.004-0.302,0.012
		c-2.549,0.164-4.482,2.367-4.318,4.917c0.051,0.791,0.079,1.597,0.079,2.395v7.257c0,2.554,2.073,4.625,4.627,4.625
		c2.555,0,4.626-2.071,4.626-4.625v-7.257C93.031,50.023,92.996,49.015,92.936,48.021z"/>
	<path fill="#9E9E9E" d="M79.628,32.235c1.265,2.222,4.087,2.998,6.308,1.734c2.222-1.262,2.999-4.085,1.734-6.309
		c-2.562-4.509-3.92-6.647-7.769-9.918c-0.899-0.768-2.01-1.127-3.11-1.1c-1.271,0.034-2.522,0.587-3.409,1.633
		c-1.654,1.945-1.417,4.865,0.53,6.519C76.935,27.363,77.6,28.67,79.628,32.235z"/>
	<path fill="#9E9E9E" d="M29.489,16.643c-1.103-0.027-2.213,0.332-3.112,1.1c-3.85,3.271-5.207,5.409-7.771,9.918
		c-1.263,2.224-0.484,5.046,1.734,6.309c2.223,1.263,5.046,0.488,6.311-1.734c2.028-3.565,2.692-4.872,5.713-7.44
		c1.95-1.654,2.188-4.574,0.533-6.519C32.009,17.23,30.756,16.677,29.489,16.643z"/>
	<path fill="#9E9E9E" d="M47.204,19.574c3.793-0.831,7.777-0.834,11.57-0.011c2.496,0.543,4.961-1.04,5.502-3.538
		c0.447-2.048-0.555-4.059-2.304-5.018V6.716c0-2.554-2.071-4.627-4.626-4.627h-8.108c-2.553,0-4.624,2.073-4.624,4.627v4.021
		c-2.132,0.786-3.424,3.027-2.921,5.309C42.241,18.542,44.71,20.122,47.204,19.574z"/>
	<path fill="#9E9E9E" d="M17.626,62.905c2.558,0,4.624-2.071,4.624-4.625v-7.326c0-0.776,0.026-1.562,0.076-2.335
		c0.159-2.551-1.775-4.749-4.325-4.911c-0.102-0.005-0.196-0.009-0.3-0.009c-2.418,0-4.454,1.883-4.611,4.335
		c-0.059,0.965-0.091,1.949-0.091,2.92v7.326C12.999,60.834,15.07,62.905,17.626,62.905z"/>
	<path fill="#9E9E9E" d="M26.65,102.061c-1.265-2.221-4.088-2.997-6.311-1.734c-2.219,1.266-2.997,4.089-1.734,6.309
		c2.564,4.51,3.922,6.648,7.771,9.919c0.899,0.768,2.01,1.128,3.112,1.099c1.267-0.029,2.52-0.586,3.407-1.631
		c1.654-1.945,1.417-4.866-0.533-6.52C29.343,106.935,28.679,105.627,26.65,102.061z"/>
	<path fill="#9E9E9E" d="M85.936,100.326c-2.221-1.263-5.043-0.486-6.308,1.734c-2.028,3.566-2.693,4.874-5.716,7.441
		c-1.947,1.653-2.185,4.574-0.53,6.52c0.887,1.045,2.139,1.602,3.409,1.631c1.101,0.029,2.211-0.331,3.11-1.099
		c3.849-3.271,5.207-5.409,7.769-9.919C88.935,104.415,88.157,101.592,85.936,100.326z"/>
	<path fill="#9E9E9E" d="M59.074,115.647c-3.79,0.832-7.777,0.835-11.567,0.012c-2.499-0.544-4.964,1.04-5.506,3.538
		c-0.544,2.496,1.044,4.959,3.538,5.502c0.138,0.029,0.271,0.05,0.409,0.079h-0.103L53,131.931l7.052-7.054
		c0.333-0.061,0.671-0.119,1.004-0.193c2.495-0.546,4.074-3.013,3.529-5.507C64.038,116.679,61.566,115.101,59.074,115.647z"/>
</g>
</svg>
